<svg width="1566" height="458" viewBox="0 0 1566 458" fill="none" xmlns="http://www.w3.org/2000/svg">
<g clip-path="url(#clip0)">
<path d="M1566 -173H0V631H1566V-173Z" fill="white"/>
<g opacity="0.5">
<path opacity="0.3" fill-rule="evenodd" clip-rule="evenodd" d="M202.22 -5.72314L-80.4456 769.919C-154.594 973.397 -379.862 1078.31 -583.594 1004.25C-787.325 930.186 -892.372 705.199 -818.218 501.725L-535.557 -273.917C-461.404 -477.391 -236.136 -582.307 -32.4046 -508.25V-508.245C171.327 -434.189 276.369 -209.197 202.22 -5.72314ZM362 183.649C362 183.649 569.341 133.035 653.386 344.138L666.279 379.486L807.705 767.241C881.541 969.674 1105.84 1074.05 1308.7 1000.37C1511.56 926.69 1616.16 702.854 1542.32 500.422L1260.87 -271.239C1187.03 -473.676 962.731 -578.051 759.869 -504.369C643.655 -462.161 559.696 -370.671 523.053 -262.162L362 183.649Z" stroke="#D1D5E4" stroke-width="4"/>
<path opacity="0.3" d="M362.882 181.319L247.623 498.216C173.964 700.733 278.312 924.654 480.682 998.364C629.676 1052.63 790.252 1010.34 894 903.439" stroke="#D1D5E4" stroke-width="4"/>
</g>
<path d="M587.86 261.324V234.5C587.86 227.896 584.408 221.904 577.6 221.904C570.896 221.904 566.932 227.904 566.932 234.5V261.324H554.532V211.132H566.016L566.928 217.228C569.572 212.152 575.36 210.32 580.128 210.32C586.128 210.32 592.128 212.76 594.96 219.668C599.432 212.556 605.224 210.524 611.724 210.524C625.948 210.524 632.96 219.26 632.96 234.3V261.324H620.56V234.3C620.56 227.696 617.816 222.108 611.112 222.108C604.408 222.108 600.24 227.896 600.24 234.508V261.332L587.86 261.324ZM643.8 261.324V212.964H656.804V261.324H643.8ZM661.68 190.408H648.372L644.104 204.836V205.444H654.16L661.68 190.916V190.408ZM699.184 224.544C695.628 221.192 691.584 220.076 686.784 220.076C680.892 220.076 677.64 221.904 677.64 225.052C677.64 228.304 680.588 230.132 686.988 230.54C696.436 231.148 708.424 233.284 708.424 246.592C708.424 255.432 701.224 263.052 686.888 263.052C678.96 263.052 671.036 261.732 663.72 254.112L669.816 245.272C673.372 249.232 681.5 252.18 687.088 252.28C691.764 252.384 696.132 249.944 696.132 246.28C696.132 242.824 693.288 241.404 686.176 240.996C676.728 240.284 665.448 236.832 665.448 225.452C665.448 213.852 677.448 209.804 686.58 209.804C694.404 209.804 700.296 211.328 706.088 216.408L699.184 224.544ZM732.896 197.112V211.336H746.712V222.004H732.792V243.644C732.792 248.42 735.436 250.756 739.296 250.756C741.384 250.698 743.433 250.177 745.296 249.232L748.752 259.8C745.499 261.159 742.017 261.882 738.492 261.932C727.62 262.332 720.492 256.144 720.492 243.644V222.004H711.144V211.336H720.492V198.432L732.896 197.112ZM819.852 254.924C814.06 260.612 807.964 262.848 800.548 262.848C786.02 262.848 773.928 254.112 773.928 236.332C773.928 218.552 786.02 209.812 800.548 209.812C807.66 209.812 813.148 211.844 818.632 217.228L810.808 225.46C808.055 222.951 804.476 221.541 800.752 221.496C792.42 221.496 786.324 227.592 786.324 236.332C786.324 245.88 792.828 250.96 800.548 250.96C804.512 250.96 808.472 249.844 811.52 246.796L819.852 254.924ZM863.172 211.236H875.06V261.324H863.376L862.768 254.008C859.92 259.9 852.1 262.748 846.512 262.848C831.676 262.948 820.704 253.804 820.704 236.228C820.704 218.956 832.184 209.916 846.816 210.016C853.52 210.016 859.92 213.168 862.768 218.144L863.172 211.236ZM833.1 236.228C833.1 245.78 839.704 251.468 847.932 251.468C867.44 251.468 867.44 221.092 847.932 221.092C839.704 221.092 833.1 226.68 833.1 236.228Z" fill="#031A34"/>
<g clip-path="url(#clip1)">
<path d="M353.448 195.182L336.748 241.14C332.366 253.196 338.573 266.527 350.61 270.915C362.647 275.304 375.957 269.087 380.338 257.031L397.039 211.073C401.42 199.016 395.214 185.686 383.177 181.297C371.139 176.909 357.83 183.126 353.448 195.182Z" fill="#0066FF"/>
<path d="M403.174 222.275C403.174 222.275 415.479 219.261 420.465 231.834L421.237 233.946L429.626 257.04C434.01 269.092 447.316 275.305 459.35 270.919C465.131 268.812 469.839 264.491 472.438 258.908C475.038 253.324 475.317 246.934 473.212 241.145L456.512 195.184C454.41 189.393 450.097 184.675 444.522 182.069C438.947 179.463 432.567 179.182 426.785 181.288C420.15 183.699 414.975 189.01 412.732 195.713L403.174 222.275Z" fill="#D1D5E4"/>
<path d="M429.626 257.032L421.237 233.946L420.47 231.843C415.484 219.269 403.18 222.283 403.18 222.283L396.32 241.142C394.215 246.932 394.493 253.322 397.092 258.906C399.692 264.491 404.401 268.812 410.182 270.919C418.772 274.053 428.399 271.841 434.766 265.269C432.49 262.918 430.739 260.111 429.626 257.032Z" fill="#D1D5E4"/>
<path d="M429.626 257.032L421.237 233.946L420.47 231.843C415.484 219.269 403.18 222.283 403.18 222.283L396.32 241.142C394.215 246.932 394.493 253.322 397.092 258.906C399.692 264.491 404.401 268.812 410.182 270.919C418.772 274.053 428.399 271.841 434.766 265.269C432.49 262.918 430.739 260.111 429.626 257.032Z" fill="url(#paint0_linear)" fill-opacity="0.4"/>
</g>
<path d="M754.312 211.032V261.324H766.712V211.032H754.312Z" fill="#031A34"/>
<path d="M767.9 197.084C767.9 207.116 752.7 207.116 752.7 197.084C752.7 187.052 767.9 187.048 767.9 197.084Z" fill="#031A34"/>
<path d="M940.65 211.13H935.505V222.47C931.2 214.385 922.695 210.5 914.295 210.5C899.805 210.5 887.94 221.21 887.94 237.065C887.94 252.92 899.805 263.84 914.295 263.84C922.695 263.84 930.465 260.06 935.505 251.975V263H940.65V211.13ZM914.295 215.435C928.785 215.435 935.925 226.25 935.925 237.065C935.925 247.985 928.785 258.8 914.295 258.8C902.535 258.8 893.085 250.085 893.085 237.065C893.085 224.045 902.535 215.435 914.295 215.435Z" fill="#031A34"/>
<path d="M959.697 211.13H954.657V263H959.802V234.125C959.802 223.31 967.362 215.225 978.282 215.225C989.307 215.225 996.447 221.525 996.447 233.18V263H1001.59V233.075C1001.59 218.69 992.037 210.185 978.177 210.185C970.932 210.29 963.687 213.23 959.697 220.37V211.13Z" fill="#031A34"/>
<path d="M1064.82 189.5H1059.78V222.47C1055.58 214.07 1047.18 210.29 1038.26 210.29C1023.77 210.29 1012.22 219.95 1012.22 237.065C1012.22 254.285 1023.66 263.84 1038.15 263.84C1046.97 263.84 1055.48 259.43 1059.78 251.555V263H1064.82V189.5ZM1038.47 215.225C1050.44 215.225 1059.68 224.045 1059.68 236.96C1059.68 249.875 1050.65 258.8 1038.47 258.8C1026.81 258.8 1017.26 251.45 1017.26 237.065C1017.26 222.47 1026.81 215.225 1038.47 215.225Z" fill="#031A34"/>
<path d="M1084.48 211.13H1079.65V263H1084.8V232.76C1084.8 223.31 1092.25 215.54 1101.91 215.435C1104.96 215.435 1108 216.17 1110.73 217.85L1113.04 213.65C1109.79 211.655 1106.11 210.605 1102.44 210.605C1095.72 210.605 1088.05 213.125 1084.69 220.37L1084.48 211.13Z" fill="#031A34"/>
<path d="M1144.71 263.735C1159.31 263.735 1171.07 253.655 1171.07 237.17C1171.07 220.685 1159.31 210.185 1144.71 210.185C1130.12 210.185 1118.36 220.685 1118.36 237.17C1118.36 253.655 1130.12 263.735 1144.71 263.735ZM1144.71 258.695C1132.95 258.695 1123.4 250.61 1123.4 237.17C1123.4 223.73 1132.95 215.015 1144.71 215.015C1156.47 215.015 1166.03 223.73 1166.03 237.17C1166.03 250.61 1156.47 258.695 1144.71 258.695Z" fill="#031A34"/>
<path d="M1181.44 194.225C1181.44 196.955 1183.54 198.32 1185.64 198.32C1187.63 198.32 1189.73 196.955 1189.73 194.225C1189.73 191.495 1187.63 190.13 1185.64 190.13C1183.54 190.13 1181.44 191.495 1181.44 194.225ZM1182.91 210.92H1188.05V263H1182.91V210.92Z" fill="#031A34"/>
<path d="M1252.57 189.5H1247.53V222.47C1243.33 214.07 1234.93 210.29 1226.01 210.29C1211.52 210.29 1199.97 219.95 1199.97 237.065C1199.97 254.285 1211.41 263.84 1225.9 263.84C1234.72 263.84 1243.23 259.43 1247.53 251.555V263H1252.57V189.5ZM1226.22 215.225C1238.19 215.225 1247.43 224.045 1247.43 236.96C1247.43 249.875 1238.4 258.8 1226.22 258.8C1214.56 258.8 1205.01 251.45 1205.01 237.065C1205.01 222.47 1214.56 215.225 1226.22 215.225Z" fill="#031A34"/>
</g>
<defs>
<linearGradient id="paint0_linear" x1="439.978" y1="206.118" x2="397.614" y2="272.397" gradientUnits="userSpaceOnUse">
<stop/>
<stop offset="1" stop-opacity="0"/>
</linearGradient>
<clipPath id="clip0">
<rect width="1566" height="458" fill="white"/>
</clipPath>
<clipPath id="clip1">
<rect width="140.849" height="93.3889" fill="white" transform="translate(334.889 179.426)"/>
</clipPath>
</defs>
</svg>
